<svg width="80" height="80" viewBox="0 0 80 80" fill="none" xmlns="http://www.w3.org/2000/svg">
<g clip-path="url(#clip0_3013_822)">
<path d="M73.7175 16.2506C79.9784 11.5033 75.3367 -0.870791 66.7445 1.92232C59.3524 4.31916 60.7236 13.8074 66.0933 16.7667C65.0901 24.8952 66.6613 34.8613 62.8069 42.2164C60.4468 46.716 51.5442 32.7185 50.709 31.3011C48.5026 27.5525 46.6513 23.6057 44.4785 19.8395C48.9154 14.5345 44.3425 4.00916 36.3487 6.60573C28.3934 9.18952 30.5886 19.9753 36.9887 22.003C36.971 22.0651 36.9597 22.1288 36.9552 22.1932C37.3104 30.4191 38.9936 39.0205 36.8783 47.133C33.5631 59.8475 18.6556 36.7963 15.2619 31.9531C20.3356 26.8127 15.7275 15.6226 7.51296 18.2911C-0.0343897 20.7439 1.55445 30.5837 7.20736 33.3113C7.20573 33.3384 7.20573 33.3656 7.20736 33.3928C8.40418 41.2848 11.3674 49.0361 14.3547 56.4024C16.7819 62.3977 19.6348 70.5773 24.3869 75.1649C26.7261 77.4227 31.0766 77.3124 34.0527 77.2693C39.5568 77.1862 45.0929 76.0852 50.4226 74.7973C58.8756 72.7536 71.223 69.6202 76.5687 62.0414C77.7063 60.4275 77.6407 58.3838 77.7575 56.5031C78.0424 51.9155 77.8504 47.2976 77.5735 42.7165C77.0375 33.8322 75.8327 24.9048 73.7175 16.2506ZM66.5813 4.91837C72.4038 0.763852 77.6616 12.2463 71.1062 14.8493C68.7942 15.5316 66.8133 14.7822 65.2181 13.0261C62.6981 10.2585 63.7365 6.9429 66.5813 4.91837ZM36.1807 9.60977C42.0032 5.45526 47.2626 16.9409 40.7056 19.5423C38.3936 20.223 36.4127 19.4752 34.8191 17.7175C32.3023 14.9435 33.3423 11.6279 36.1807 9.60977ZM7.34976 21.2936C13.1739 17.139 18.4316 28.6247 11.8762 31.2245C9.5642 31.9083 7.58176 31.1589 5.98813 29.4029C3.47288 26.6273 4.5113 23.3117 7.34656 21.2856L7.34976 21.2936ZM74.2615 60.6927C72.3574 63.8662 67.8614 65.7325 64.6613 67.2074C59.8916 69.4061 54.7939 70.9336 49.7106 72.2168C44.8545 73.4407 39.8816 74.294 34.8767 74.564C31.5518 74.7382 27.3294 74.9667 25.2589 71.9595C17.486 60.6768 13.0987 47.0803 9.4778 33.9696C10.3918 34.0695 11.3162 34.0051 12.2075 33.7795C12.3275 33.7687 12.4454 33.7412 12.5579 33.698C12.6755 33.6651 12.7876 33.615 12.8907 33.5494C13.1179 33.4503 13.3387 33.3464 13.5467 33.2298C17.0108 39.6549 28.851 59.3969 37.0544 51.8804C40.3488 48.8636 40.2416 42.3825 40.3056 38.3574C40.3888 33.0077 39.8816 27.6228 39.0992 22.3306C39.7522 22.3316 40.403 22.2527 41.0368 22.0957C41.1574 22.0841 41.2758 22.0562 41.3888 22.0126C41.5063 21.9791 41.6183 21.929 41.7216 21.864C42.0847 21.7083 42.4356 21.5256 42.7713 21.3175C45.6865 27.0699 48.5586 32.8527 52.2418 38.1561C54.0723 40.791 57.7812 46.3788 61.7204 45.6997C65.3861 45.0606 66.2165 40.6776 66.7909 37.6176C68.0294 31.0359 67.9878 24.2113 68.231 17.5273C69.2939 17.7154 70.3847 17.6756 71.431 17.4107C71.479 17.4107 71.527 17.3963 71.5766 17.3851C72.9767 25.2419 74.1367 33.1387 74.7767 41.0962C75.0727 44.7714 75.1927 48.4465 75.1975 52.1392C75.2007 54.7534 75.6471 58.3694 74.2615 60.6927Z" fill="white"/>
<path d="M40.2891 16.7714C39.1451 16.7283 38.1787 16.8322 37.1243 16.2921C36.3099 15.8702 35.7755 14.6638 34.9098 14.4753C34.8802 14.4683 34.849 14.4728 34.8225 14.4879C34.7961 14.503 34.7764 14.5277 34.7674 14.5568C34.3306 15.6513 35.9883 16.9536 36.7755 17.4601C37.9195 18.1888 39.4811 18.2591 40.55 17.4058C40.8204 17.1869 40.5788 16.7826 40.2891 16.7714Z" fill="white"/>
<path d="M11.852 29.6232C11.871 29.604 11.8854 29.5807 11.8941 29.555C11.9027 29.5294 11.9054 29.5021 11.9018 29.4752C11.8983 29.4484 11.8886 29.4227 11.8736 29.4002C11.8586 29.3776 11.8386 29.3588 11.8152 29.3452C10.7863 28.8914 9.65991 28.9266 8.65029 28.3977C7.77027 27.9359 7.24706 27.0171 6.33344 26.6624C6.30204 26.6535 6.2684 26.6574 6.2399 26.6733C6.21141 26.6892 6.19038 26.7157 6.18144 26.747C5.98624 27.9119 7.17506 28.8467 8.05828 29.4075C9.1607 30.1058 10.7623 30.4925 11.852 29.6232Z" fill="white"/>
<path d="M70.6454 12.6281C69.6534 12.2494 68.6342 12.2254 67.7062 11.6502C66.6918 11.0206 66.4501 9.95961 65.7317 9.11912C65.702 9.09014 65.6653 9.06934 65.6251 9.05879C65.5849 9.04823 65.5427 9.04828 65.5026 9.0589C65.4624 9.06953 65.4257 9.09039 65.396 9.11943C65.3664 9.14847 65.3448 9.18469 65.3333 9.22457C64.9589 10.3958 66.0533 11.7812 66.9334 12.4379C67.975 13.2177 69.5238 13.8856 70.6998 13.0499C70.7381 13.0264 70.7688 12.9923 70.7882 12.9518C70.8075 12.9112 70.8148 12.866 70.8091 12.8215C70.8033 12.7769 70.7848 12.735 70.7558 12.7007C70.7268 12.6664 70.6884 12.6412 70.6454 12.6281Z" fill="white"/>
<path d="M60.4137 64.9527C55.1192 66.33 49.879 67.8528 44.5397 69.0593C38.4596 70.4334 31.6819 72.4276 26.0082 69.0593C25.8978 68.9921 25.8034 69.1375 25.8786 69.2286C29.5042 73.5941 35.1012 72.3685 40.0805 71.528C47.079 70.3488 54.2599 68.6694 60.5977 65.3969C60.8441 65.2611 60.6713 64.8855 60.4137 64.9527Z" fill="white"/>
<path d="M63.3395 63.5369C62.9043 63.7367 62.3155 63.9412 62.0995 64.4078C62.0918 64.4209 62.0873 64.4356 62.0862 64.4507C62.0851 64.4658 62.0875 64.481 62.0932 64.495C62.099 64.5091 62.1078 64.5216 62.1192 64.5317C62.1305 64.5418 62.144 64.5491 62.1587 64.5532C62.6547 64.6571 63.1683 64.3742 63.6179 64.1969C64.1859 63.9748 64.6915 63.823 65.0755 63.326C65.0941 63.3065 65.1067 63.282 65.1116 63.2556C65.1166 63.2291 65.1137 63.2017 65.1033 63.1768C65.093 63.1519 65.0756 63.1306 65.0534 63.1154C65.0311 63.1002 65.0049 63.0917 64.9779 63.0911C64.3571 63.0336 63.8915 63.2829 63.3395 63.5369Z" fill="white"/>
<path d="M37.2577 78.9662C34.0769 78.9662 31.064 79.5414 27.8975 78.8639C25.3199 78.3127 23.211 76.7755 21.5278 74.8037C19.5182 72.4452 18.3278 69.3852 17.0061 66.6257C15.4525 63.3851 14.1037 60.0472 12.4572 56.8546C12.438 56.8146 12.3756 56.8434 12.3884 56.8849C13.4509 60.6256 15.0541 64.1969 16.7085 67.7122C18.1165 70.7035 19.4286 73.7251 21.6798 76.1986C25.6799 80.6024 31.9584 80.5513 37.2865 79.1771C37.3122 79.1707 37.3346 79.1551 37.3494 79.1333C37.3643 79.1114 37.3705 79.0849 37.3669 79.0587C37.3633 79.0326 37.3502 79.0087 37.3301 78.9916C37.3099 78.9745 37.2841 78.9655 37.2577 78.9662Z" fill="white"/>
<path d="M40.4664 78.1432C39.8168 78.3541 39.1319 78.4388 38.5111 78.7249C38.4992 78.7323 38.4896 78.7431 38.4836 78.7559C38.4776 78.7686 38.4753 78.7828 38.4772 78.7968C38.4791 78.8108 38.4849 78.824 38.494 78.8347C38.5032 78.8455 38.5152 78.8534 38.5287 78.8575C39.7079 79.1131 41.3176 78.5139 42.2856 77.8524C42.3464 77.8109 42.332 77.6926 42.2456 77.7022C41.6216 77.7533 41.0584 77.9515 40.4664 78.1432Z" fill="white"/>
<path d="M79.7284 44.3782C79.3572 37.6543 78.898 30.6811 77.3412 24.109C77.3188 24.0115 77.1588 24.0307 77.1684 24.1313C78.426 37.0743 79.9461 49.9229 79.1252 62.9601C79.1252 63.024 79.2276 63.04 79.2388 62.9745C80.2581 56.8625 80.0677 50.5461 79.7284 44.3782Z" fill="white"/>
<path d="M61.1964 39.2506C61.2214 39.2497 61.2455 39.2409 61.2651 39.2253C61.2848 39.2097 61.2988 39.1882 61.3053 39.164C61.3117 39.1399 61.3102 39.1143 61.301 39.091C61.2918 39.0677 61.2753 39.048 61.254 39.0349C58.2651 37.3922 56.2827 35.8263 54.4666 32.8494C53.0106 30.4526 52.0442 27.6243 50.2409 25.4688C50.1977 25.416 50.0985 25.4688 50.1257 25.5359C51.8634 29.7431 55.3099 39.6628 61.1964 39.2506Z" fill="white"/>
<path d="M32.9916 47.8185C33.019 47.8179 33.0454 47.8076 33.0659 47.7893C33.0864 47.771 33.0997 47.746 33.1033 47.7189C33.107 47.6917 33.1008 47.6641 33.0859 47.641C33.071 47.618 33.0483 47.601 33.022 47.5932C29.4747 46.358 27.2139 44.4422 24.9642 41.4637C23.3722 39.3561 22.0362 36.7643 19.9625 35.0722C19.9337 35.0482 19.8857 35.0722 19.9081 35.1137C21.6778 37.9052 23.5738 40.7191 25.6394 43.2997C27.3659 45.4632 29.9963 48.0262 32.9916 47.8185Z" fill="white"/>
<path d="M17.6669 21.3334C17.676 21.35 17.691 21.3626 17.7089 21.3688C17.7268 21.375 17.7464 21.3744 17.7639 21.3671C17.7814 21.3597 17.7955 21.3462 17.8036 21.329C17.8117 21.3119 17.8131 21.2924 17.8077 21.2743C16.5644 16.6564 10.9531 13.948 6.59623 16.209C6.52582 16.2457 6.57703 16.34 6.64583 16.3288C11.5291 15.4819 15.1388 16.9839 17.6669 21.3334Z" fill="white"/>
<path d="M3.84656 33.1738C2.98734 32.6417 2.34252 31.8012 1.80331 30.9687C0.908895 29.5881 0.54569 27.9662 0.244884 26.3747C0.238399 26.3589 0.227325 26.3453 0.213076 26.3357C0.198828 26.3261 0.18205 26.321 0.164882 26.321C0.147714 26.321 0.130937 26.3261 0.116688 26.3357C0.102439 26.3453 0.0913648 26.3589 0.0848804 26.3747C-0.235126 28.2363 0.432087 30.1042 1.40491 31.6717C2.21452 32.9724 3.88496 34.639 5.55059 34.3881C5.56607 34.3829 5.58003 34.3739 5.59126 34.3621C5.6025 34.3502 5.61067 34.3358 5.61508 34.32C5.61949 34.3043 5.62 34.2877 5.61657 34.2718C5.61314 34.2558 5.60587 34.2409 5.59539 34.2284C5.05618 33.7857 4.42897 33.5349 3.84656 33.1738Z" fill="white"/>
<path d="M47.1871 10.1882C48.1711 12.8455 47.9503 15.7489 47.4319 18.4749C47.4111 18.5835 47.5663 18.6666 47.6223 18.5548C49.9008 13.9432 47.6639 3.64484 40.939 4.39265C40.9206 4.39291 40.903 4.39974 40.8892 4.41188C40.8755 4.42402 40.8665 4.44067 40.864 4.45883C40.8615 4.47699 40.8656 4.49546 40.8755 4.51087C40.8854 4.52628 40.9006 4.53763 40.9182 4.54286C44.1246 5.46325 46.0063 6.99881 47.1871 10.1882Z" fill="white"/>
<path d="M76.9188 15.0425C76.8676 15.164 77.0484 15.2151 77.114 15.1256C79.4277 12.0305 79.0213 7.86962 77.3092 4.59554C75.9876 2.06608 72.8404 -0.597603 69.7971 0.121448C69.7822 0.126496 69.7693 0.136061 69.7602 0.148814C69.751 0.161567 69.7461 0.176858 69.7461 0.192545C69.7461 0.208232 69.751 0.223543 69.7602 0.236296C69.7693 0.249049 69.7822 0.258614 69.7971 0.263662C77.1188 1.57873 79.6021 8.53594 76.9188 15.0425Z" fill="white"/>
<path d="M31.9522 21.3623C31.9667 21.3707 31.9837 21.3742 32.0004 21.3721C32.0171 21.37 32.0327 21.3624 32.0447 21.3506C32.0567 21.3388 32.0645 21.3234 32.0669 21.3067C32.0692 21.2901 32.066 21.2731 32.0578 21.2584C31.1249 19.9002 30.1489 18.6858 29.6049 17.1039C29.0769 15.5699 29.2257 13.8969 28.7265 12.3741C28.7238 12.3643 28.718 12.3556 28.7099 12.3494C28.7018 12.3432 28.6919 12.3398 28.6817 12.3398C28.6715 12.3398 28.6616 12.3432 28.6535 12.3494C28.6454 12.3556 28.6395 12.3643 28.6369 12.3741C27.9553 15.4836 29.2433 19.6046 31.9522 21.3623Z" fill="white"/>
<path d="M60.1809 11.4266C59.5537 8.23078 60.2721 5.72049 61.997 3.0584C62.045 2.9833 61.9538 2.9162 61.8866 2.94656C59.0545 4.23766 58.7633 9.11282 60.0417 11.4873C60.0881 11.5672 60.2001 11.5097 60.1809 11.4266Z" fill="white"/>
</g>
<defs>
<clipPath id="clip0_3013_822">
<rect width="80" height="80" fill="white"/>
</clipPath>
</defs>
</svg>
